<mxfile host="Electron" modified="2023-09-15T18:10:20.975Z" agent="Mozilla/5.0 (Windows NT 10.0; Win64; x64) AppleWebKit/537.36 (KHTML, like Gecko) draw.io/21.6.8 Chrome/114.0.5735.289 Electron/25.5.0 Safari/537.36" etag="d5og46B6iJHpc5yodAbt" version="21.6.8" type="device">
  <diagram name="Страница — 1" id="jqdYml04wk9zA7OK3DTw">
    <mxGraphModel dx="803" dy="868" grid="1" gridSize="10" guides="1" tooltips="1" connect="1" arrows="1" fold="1" page="1" pageScale="1" pageWidth="827" pageHeight="1169" math="0" shadow="0">
      <root>
        <mxCell id="0" />
        <mxCell id="1" parent="0" />
        <mxCell id="8KiYXSXz2oXsl8TVtDhV-6" value="" style="edgeStyle=orthogonalEdgeStyle;rounded=0;orthogonalLoop=1;jettySize=auto;html=1;" parent="1" source="8KiYXSXz2oXsl8TVtDhV-1" target="8KiYXSXz2oXsl8TVtDhV-2" edge="1">
          <mxGeometry relative="1" as="geometry" />
        </mxCell>
        <mxCell id="8KiYXSXz2oXsl8TVtDhV-1" value="SecondArray" style="rounded=1;whiteSpace=wrap;html=1;" parent="1" vertex="1">
          <mxGeometry x="377.5" y="60" width="120" height="60" as="geometry" />
        </mxCell>
        <mxCell id="8KiYXSXz2oXsl8TVtDhV-7" value="" style="edgeStyle=orthogonalEdgeStyle;rounded=0;orthogonalLoop=1;jettySize=auto;html=1;" parent="1" source="8KiYXSXz2oXsl8TVtDhV-2" target="8KiYXSXz2oXsl8TVtDhV-3" edge="1">
          <mxGeometry relative="1" as="geometry" />
        </mxCell>
        <mxCell id="8KiYXSXz2oXsl8TVtDhV-2" value="string[] array1&lt;br&gt;string array2&lt;br&gt;int count = 0" style="shape=parallelogram;perimeter=parallelogramPerimeter;whiteSpace=wrap;html=1;fixedSize=1;" parent="1" vertex="1">
          <mxGeometry x="377.5" y="170" width="120" height="60" as="geometry" />
        </mxCell>
        <mxCell id="8KiYXSXz2oXsl8TVtDhV-8" value="" style="edgeStyle=orthogonalEdgeStyle;rounded=0;orthogonalLoop=1;jettySize=auto;html=1;" parent="1" source="8KiYXSXz2oXsl8TVtDhV-3" target="8KiYXSXz2oXsl8TVtDhV-4" edge="1">
          <mxGeometry relative="1" as="geometry" />
        </mxCell>
        <mxCell id="8KiYXSXz2oXsl8TVtDhV-3" value="for (int i = 0;&lt;br&gt;i &amp;lt;array1.length;&lt;br&gt;i++" style="shape=hexagon;perimeter=hexagonPerimeter2;whiteSpace=wrap;html=1;fixedSize=1;" parent="1" vertex="1">
          <mxGeometry x="377.5" y="300" width="120" height="80" as="geometry" />
        </mxCell>
        <mxCell id="On5A2-kiglOkgO07Z8dv-1" value="" style="edgeStyle=orthogonalEdgeStyle;rounded=0;orthogonalLoop=1;jettySize=auto;html=1;" edge="1" parent="1" source="8KiYXSXz2oXsl8TVtDhV-4" target="8KiYXSXz2oXsl8TVtDhV-5">
          <mxGeometry relative="1" as="geometry" />
        </mxCell>
        <mxCell id="8KiYXSXz2oXsl8TVtDhV-4" value="if (array1[i].lenght &amp;lt;=3)" style="rhombus;whiteSpace=wrap;html=1;" parent="1" vertex="1">
          <mxGeometry x="362.5" y="410" width="150" height="100" as="geometry" />
        </mxCell>
        <mxCell id="8KiYXSXz2oXsl8TVtDhV-5" value="array2[count] = array1[i]&lt;br&gt;count++;" style="rounded=0;whiteSpace=wrap;html=1;" parent="1" vertex="1">
          <mxGeometry x="370" y="600" width="135" height="60" as="geometry" />
        </mxCell>
        <mxCell id="8KiYXSXz2oXsl8TVtDhV-10" value="" style="endArrow=classic;html=1;rounded=0;entryX=0;entryY=0.5;entryDx=0;entryDy=0;" parent="1" edge="1" target="8KiYXSXz2oXsl8TVtDhV-3">
          <mxGeometry width="50" height="50" relative="1" as="geometry">
            <mxPoint x="370" y="460" as="sourcePoint" />
            <mxPoint x="360" y="370" as="targetPoint" />
            <Array as="points">
              <mxPoint x="310" y="460" />
              <mxPoint x="310" y="340" />
            </Array>
          </mxGeometry>
        </mxCell>
        <mxCell id="8KiYXSXz2oXsl8TVtDhV-11" value="" style="endArrow=classic;html=1;rounded=0;exitX=1;exitY=0.5;exitDx=0;exitDy=0;entryX=1.025;entryY=0.613;entryDx=0;entryDy=0;entryPerimeter=0;" parent="1" source="8KiYXSXz2oXsl8TVtDhV-5" target="8KiYXSXz2oXsl8TVtDhV-3" edge="1">
          <mxGeometry width="50" height="50" relative="1" as="geometry">
            <mxPoint x="390" y="470" as="sourcePoint" />
            <mxPoint x="440" y="420" as="targetPoint" />
            <Array as="points">
              <mxPoint x="570" y="630" />
              <mxPoint x="570" y="349" />
            </Array>
          </mxGeometry>
        </mxCell>
        <mxCell id="8KiYXSXz2oXsl8TVtDhV-12" value="Yes" style="text;html=1;align=center;verticalAlign=middle;resizable=0;points=[];autosize=1;strokeColor=none;fillColor=none;" parent="1" vertex="1">
          <mxGeometry x="400" y="530" width="40" height="30" as="geometry" />
        </mxCell>
        <mxCell id="8KiYXSXz2oXsl8TVtDhV-13" value="No" style="text;html=1;align=center;verticalAlign=middle;resizable=0;points=[];autosize=1;strokeColor=none;fillColor=none;" parent="1" vertex="1">
          <mxGeometry x="310" y="388" width="40" height="30" as="geometry" />
        </mxCell>
      </root>
    </mxGraphModel>
  </diagram>
</mxfile>
